<svg xmlns="http://www.w3.org/2000/svg" width="113" height="48"><path fill="#f3f2f7" d="M104.743 14.855c-.175.982-.539 1.794-.95 2.628a5.615 5.615 0 01-1.578 1.974c-.691.564-1.552.884-2.587.96-.608.044-1.14-.023-1.59-.202a3.164 3.164 0 01-1.145-.759c-.31-.326-.58-.493-.789-.932a7.888 7.888 0 01-.506-1.401 13.203 13.203 0 01-.342-1.898 14.945 14.945 0 01-1.044 2.316c-.412.72-.848 1.599-1.31 2.04-.46.443-.919.684-1.377.728-.368.033-.667-.065-.9-.298a1.845 1.845 0 01-.486-.832 3.067 3.067 0 01-.1-.56c-.012-.185-.023-.651-.028-.808.01-.176.021-.79.021-.79s-.042.146-.084.3c-.139.504-.368 1.257-.636 1.681-.267.424-.54.748-.817.967-.277.222-.525.361-.743.421-.221.06-.365.092-.439.099-.733.068-1.323-.141-1.768-.627-.445-.485-.793-1.184-1.046-2.096-.254-.913-.4-1.873-.449-2.884l-.001-.071c-.072.228-.147.449-.223.655a35.198 35.198 0 01-.652 1.618c-.354.759-.734 1.367-1.142 1.826-.408.458-.806.814-1.196 1.065-.389.252-.75.422-1.08.51-.334.09-.588.143-.771.16-.657.061-1.226-.038-1.71-.297a3.96 3.96 0 01-1.21-.991 5.64 5.64 0 01-.772-1.235 7.443 7.443 0 01-.404-1.066 10.47 10.47 0 01-.29-1.636c-.075.246-.14.5-.223.738a15.76 15.76 0 01-1.105 2.544c-.41.728-.839 1.316-1.294 1.763-.455.447-.911.693-1.364.737-.364.034-.66-.064-.892-.298a1.848 1.848 0 01-.48-.84 3.016 3.016 0 01-.1-.567 19.37 19.37 0 01-.028-.514c.008-.178.013-.356.023-.535l-.006-.117-.038.063c-.012.02-.028.032-.046.033-.151.743-.36 1.33-.625 1.759-.264.43-.533.756-.807.979-.275.223-.52.365-.735.424-.218.06-.362.095-.435.102-.727.07-1.31-.141-1.751-.63-.44-.49-.787-1.195-1.04-2.116-.204-.754-.338-2.449-.406-3.27-.043.19-.088.384-.143.588a13.41 13.41 0 01-.764 2.078c-.33.717-.746 1.394-1.248 2.03a7.47 7.47 0 01-1.805 1.647c-.702.463-1.522.762-2.46.9-1.123.163-2.143.08-3.056-.254a7.074 7.074 0 01-2.397-1.438 8.212 8.212 0 01-1.703-2.197 10.11 10.11 0 01-.964-2.524c-.34-1.484-.487-2.904-.436-4.26.05-1.356.25-2.623.596-3.801a13.347 13.347 0 011.413-3.219 12.742 12.742 0 012.011-2.537 10.304 10.304 0 012.407-1.75 8.224 8.224 0 012.61-.863c.9-.131 1.66-.086 2.281.132.62.221 1.137.538 1.544.955.409.416.726.884.95 1.404.225.521.389 1.015.497 1.484.04.17.092.434.155.794a8.062 8.062 0 01-.029 2.697 4.23 4.23 0 01-.53 1.431 3.778 3.778 0 01-1.124 1.17c-.486.333-1.116.556-1.888.67-.61.088-1.119.021-1.53-.2a3.512 3.512 0 01-1.006-.77 3.918 3.918 0 01-.688-1.267c-.231-.995-.271-1.795-.124-2.4.146-.604.37-1.067.666-1.392.296-.325.612-.545.947-.662.334-.118.565-.185.695-.204.295-.042.547-.026.754.05a1.39 1.39 0 01.832.765c.135.253.245.408.333.461.09.055.153.08.19.075.165-.024.283-.09.354-.198a.963.963 0 00.143-.37c.025-.14.03-.29.01-.453-.017-.163-.04-.3-.065-.412l-.006-.028a8.368 8.368 0 00-.183-.615 2.912 2.912 0 00-.447-.822 2.38 2.38 0 00-.839-.678c-.356-.181-.802-.233-1.336-.155-.81.12-1.588.549-2.33 1.287-.746.741-1.37 1.691-1.873 2.853-.505 1.16-.839 2.471-.998 3.93-.16 1.461-.062 2.97.297 4.528.115.508.291 1.02.523 1.54.235.52.548.98.943 1.375.396.4.89.701 1.478.906.589.206 1.307.246 2.153.122.385-.056.799-.17 1.234-.34.438-.17.887-.425 1.352-.765.463-.341.915-.79 1.358-1.35a9.838 9.838 0 001.216-1.942c.074-.482.041-.172.101-.671.12-.995.308-1.333.589-2.246.281-.913.626-1.73 1.036-2.448.408-.72.874-1.3 1.396-1.745.521-.443 1.088-.695 1.708-.754.308-.029.576-.001.805.086.228.085.416.19.561.314.168.143.294.297.379.466.033.056.07.082.105.078l.02-.031.019-.03c.193-.316.416-.573.669-.775a3.44 3.44 0 01.779-.473c.266-.114.524-.198.768-.251l.634-.135c.056-.005.09.021.107.079l-.941 11.142c-.014.021-.018.062-.02.12-.003.06.013.157.05.29a.72.72 0 00.216.334.507.507 0 00.415.139c.09-.009.248-.084.47-.224.223-.138.405-.437.65-1.01.153-.379.243-.699.387-1.126.12-.356.248-.79.379-1.295 0-.432.013-.87.043-1.322.062-.935.205-1.348.426-2.28.223-.93.546-1.778.974-2.544a6.456 6.456 0 011.595-1.91c.638-.51 1.413-.806 2.326-.89.162-.016.402-.024.722-.023.317 0 .656.071 1.012.215.358.144.704.385 1.04.727.338.341.594.836.772 1.487.093.344.15.715.165 1.116.015.4-.03.776-.14 1.129a2.18 2.18 0 01-.563.92c-.265.259-.627.41-1.083.452a3.315 3.315 0 01-.362.004 1.34 1.34 0 01-.544-.14 2.014 2.014 0 01-.559-.404c-.18-.18-.317-.441-.411-.785-.152-.554-.16-1.044-.023-1.467.136-.425.514-.803 1.135-1.135.05-.023.1-.078.152-.16a.884.884 0 00.095-.215.579.579 0 00-.017-.321c-.082-.365-.24-.586-.476-.662a1.547 1.547 0 00-.6-.091c-.292.026-.524.131-.699.313a1.883 1.883 0 00-.395.61c-.12.246-.192.527-.217.843-.142 1.876-.265 2.888-.368 4.082a86.37 86.37 0 00-.213 2.916c-.04.747-.047 1.337-.023 1.766.023.43.08.805.169 1.13.136.496.35.903.642 1.22.291.314.684.45 1.175.404.311-.029.695-.166 1.15-.414.455-.248.873-.772 1.254-1.57.265-.475.5-1.007.715-1.596.178-.507.355-1.1.523-1.781.168-.683.395-2.277.432-2.255.076-.284.117-.41.303-1.002.286-.904.636-1.711 1.05-2.422.413-.711.885-1.286 1.411-1.725.528-.438 1.103-.686 1.726-.743.312-.03.583 0 .813.084.23.086.418.192.568.313.17.141.295.295.38.463.035.055.07.081.108.078l.017-.032.022-.031a2.96 2.96 0 01.676-.763c.255-.2.517-.356.786-.469.27-.113.528-.195.778-.247.249-.053.463-.096.641-.132.055-.005.09.021.105.078l-.823 10.815a.26.26 0 00-.024.118c-.004.059.015.156.051.288a.744.744 0 00.22.33.518.518 0 00.419.137c.09-.01.25-.082.476-.22.224-.137.428-.399.665-.987.133-.343.236-.705.381-1.127a7.5 7.5 0 00.093-.278c.004-.54.03-1.08.087-1.62.096-.927.275-1.83.536-2.71.257-.882.603-1.548 1.034-2.239a5.904 5.904 0 011.576-1.698c.618-.442 1.333-.693 2.147-.752.146-.012.408-.007.78.015.373.02.77.138 1.19.348.423.212.84.562 1.25 1.055.411.493.735 1.078.974 1.99.093.36.178.916.25 1.665.073.75.097 1.591.065 2.523a19.74 19.74 0 01-.31 2.868zM69.501 7.608a.881.881 0 00-.464-.576.637.637 0 00-.324-.057c-.27.027-.526.307-.763.841-.233.535-.441 1.215-.617 2.04-.174.824-.302 1.121-.41 2.126a46.423 46.423 0 00-.224 2.961c-.045.968-.047 1.86-.012 2.674.037.814.118 1.452.243 1.911.128.462.29.682.489.664.072-.008.174-.042.306-.105.132-.061.265-.206.398-.437.134-.23.266-.558.404-.984.131-.427.227-1.017.283-1.77l.727-8.641c.013-.296 0-.512-.036-.647zm20.78-.835a.87.87 0 00-.47-.571.642.642 0 00-.326-.058c-.273.025-.531.304-.77.83-.24.53-.447 1.203-.626 2.02-.177.814-.173.892-.282 1.886a47.56 47.56 0 00-.232 2.932c-.04.96-.046 1.843-.01 2.648.036.806.116 1.437.242 1.892.127.458.291.677.493.657a1.01 1.01 0 00.31-.102c.134-.06.267-.204.403-.432.134-.227.268-.55.406-.972.137-.424.233-1.007.291-1.753l.607-8.338c.012-.293.001-.506-.036-.64zm11.382-.673c-.046-.171-.11-.296-.198-.378a.99.99 0 00-.274-.183.777.777 0 00-.259-.068 1.21 1.21 0 00-.143-.005c-.33.024-.628.361-.892 1.012-.263.65-.487 1.347-.673 2.331a34.423 34.423 0 00-.441 3.234 81.396 81.396 0 00-.244 3.336 42.108 42.108 0 00-.066 2.782c.013.805.059 1.105.12 1.332a.844.844 0 00.18.366c.06.092.14.17.241.23.101.06.233.084.401.072.276-.02.538-.344.79-.976.25-.627.46-1.2.66-2.146.192-.945.362-1.99.504-3.134.145-1.146.252-2.25.325-3.312.07-1.063.105-2.01.105-2.845-.003-.834-.048-1.304-.136-1.648zm-57.39 16.333a7.42 7.42 0 01-1.586 2.363c-.673.667-1.52 1.11-2.547 1.326-.606.129-1.134.13-1.59.007a2.75 2.75 0 01-1.16-.622 3.769 3.769 0 01-.808-1.067 7.168 7.168 0 01-.474-1.156c-.2.55-.413 1.065-.642 1.533-.388.793-1.333 1.825-1.777 2.339-.446.514-.894.825-1.349.931-.365.085-.666.027-.908-.178a1.649 1.649 0 01-.51-.78 2.92 2.92 0 01-.117-.56c-.02-.184-.035-.354-.045-.513l.004-.541-.023-.405s-.035.287-.07.406c-.182.777-.316 1.381-.568 1.85-.254.469-.516.835-.784 1.1-.27.26-.512.439-.727.53-.216.09-.363.143-.434.16-.729.17-1.323.04-1.782-.393-.458-.432-.83-1.097-1.112-1.99a12.216 12.216 0 01-.382-1.612c-.08.29-.167.57-.258.836-.368 1.08-.775 1.986-1.218 2.721-.443.735-.896 1.307-1.36 1.714-.462.41-.903.666-1.32.77-.398.1-.708.043-.926-.175a1.918 1.918 0 01-.477-.77 2.528 2.528 0 01-.102-.443 6.906 6.906 0 01-.055-.739 27.81 27.81 0 01.001-1.328c.002-.151.008-.32.01-.5-.093.418-.208.846-.35 1.286a10.21 10.21 0 01-1.008 2.199 7.645 7.645 0 01-1.608 1.872c-.646.548-1.428.945-2.346 1.193-1.1.294-2.123.326-3.07.096a7.082 7.082 0 01-2.553-1.179 8.342 8.342 0 01-1.946-2.025 10.32 10.32 0 01-1.25-2.441c-.51-1.46-.818-2.88-.923-4.256-.105-1.377-.054-2.681.156-3.91.212-1.23.557-2.37 1.038-3.42a13.03 13.03 0 011.712-2.796 10.431 10.431 0 012.194-2.047 8.218 8.218 0 012.5-1.172c.88-.237 1.642-.28 2.286-.128.643.15 1.191.412 1.647.785.455.374.823.81 1.105 1.31.283.502.505.984.666 1.445.057.167.14.429.244.784a8.37 8.37 0 01.282 2.73 4.355 4.355 0 01-.364 1.51c-.213.482-.54.917-.984 1.31-.447.394-1.047.691-1.803.896-.596.16-1.11.15-1.546-.025a3.56 3.56 0 01-1.088-.664 4.047 4.047 0 01-.834-1.202c-.34-.98-.473-1.783-.396-2.411.076-.627.244-1.124.503-1.486.258-.362.546-.621.866-.779.319-.156.543-.252.669-.287.289-.076.54-.088.755-.035a1.408 1.408 0 01.917.68c.163.239.29.382.387.426.094.046.16.064.195.054.161-.043.272-.123.33-.241a1.03 1.03 0 00.1-.39 1.583 1.583 0 00-.041-.46 3.826 3.826 0 00-.113-.408l-.01-.029a7.595 7.595 0 00-.253-.599 2.94 2.94 0 00-.539-.78 2.386 2.386 0 00-.914-.59c-.375-.141-.823-.142-1.346 0-.794.211-1.518.735-2.174 1.568-.654.834-1.168 1.867-1.535 3.099-.37 1.232-.551 2.595-.542 4.088.008 1.496.28 3.01.815 4.546.173.499.405.998.698 1.495.291.498.657.926 1.097 1.283.439.357.965.606 1.574.745.61.139 1.33.098 2.158-.125a5.612 5.612 0 001.19-.486 6.176 6.176 0 001.257-.93c.422-.397.822-.903 1.197-1.52.376-.616.71-1.38 1.005-2.288l.035-.07.052-.104.008.002.04-1.194c.046-1.34.108-2.955.188-4.846.033-.611.172-1.123.418-1.537.245-.414.535-.752.868-1.018a4.109 4.109 0 011.023-.605c.347-.136.626-.242.837-.316.055-.013.088-.001.1.036l-.372 11.832a.563.563 0 00-.017.214c.013.158.04.302.085.432.104.317.311.435.62.357.125-.032.29-.153.496-.367.204-.211.415-.667.636-1.367a16.784 16.784 0 00.485-1.759 18.846 18.846 0 01.054-2.397c.089-1.02.259-2.012.515-2.972.254-.96.576-1.832.965-2.613.39-.78.84-1.431 1.35-1.952.512-.519 1.075-.852 1.695-.996.31-.074.581-.081.815-.025.231.055.422.136.574.24.175.119.307.259.395.417.038.052.071.074.11.065l.018-.034.019-.035a3.49 3.49 0 01.649-.872c.246-.239.503-.433.766-.586.267-.152.523-.271.769-.358.245-.088.456-.164.634-.224.053-.014.09.008.109.065l-.59 11.994a.342.342 0 00-.02.125c0 .059.022.155.062.286a.643.643 0 00.228.307.474.474 0 00.422.08c.092-.02.247-.117.468-.289.215-.168.93-.918 1.08-1.48-.09-.459-.16-.94-.208-1.448-.09-.937-.1-1.883-.03-2.841.07-.96.222-1.906.454-2.84a11.05 11.05 0 01.963-2.543c.41-.762.916-1.41 1.519-1.946A4.547 4.547 0 0140.585 9.3c.147-.03.405-.06.778-.088.371-.03.77.036 1.195.197.426.157.85.46 1.274.908.424.448.767 1.12 1.03 2.019.105.358.205.911.299 1.667.093.756.14 1.609.138 2.565a21.207 21.207 0 01-.225 2.97 11.562 11.562 0 01-.802 2.896zm-13.5-8.988a.8.8 0 00-.215-.355.654.654 0 00-.599-.175c-.274.064-.52.382-.742.954-.218.573-.405 1.286-.556 2.142-.15.855-.263 1.798-.34 2.826a48.459 48.459 0 00-.134 3.019c-.013.982.013 1.884.074 2.699.062.816.165 1.448.305 1.894.142.447.311.65.512.602.073-.018.175-.067.306-.147.13-.08.259-.246.386-.496.129-.25.251-.6.375-1.048.121-.449.199-1.057.23-1.825l.454-9.443c.003-.3-.016-.516-.056-.647zm11.148-1.231c-.025-.85-.088-1.445-.187-1.783-.05-.168-.117-.288-.208-.36a.89.89 0 00-.277-.15.727.727 0 00-.259-.036 1.255 1.255 0 00-.14.016c-.331.07-.618.453-.86 1.152-.245.698-.445 1.562-.6 2.59a38.081 38.081 0 00-.344 3.359 90.199 90.199 0 00-.147 3.438c-.025 1.08-.02 2.03.016 2.848.036.819.087 1.342.153 1.567a.808.808 0 00.19.349.683.683 0 00.248.201c.102.047.235.054.4.02.276-.057.529-.425.76-1.1.229-.676.427-1.51.595-2.501a43.92 43.92 0 00.415-3.27 64.58 64.58 0 00.224-3.423c.04-1.093.047-2.066.021-2.917zm-19.05-.842c-.165.215-.35.38-.558.496a2.088 2.088 0 01-.525.222 1.5 1.5 0 01-1.164-.26c-.355-.247-.602-.602-.744-1.066a2.23 2.23 0 01-.086-.857 2.72 2.72 0 01.201-.817c.107-.25.26-.463.458-.636s.432-.29.704-.35c.433-.097.832-.02 1.199.236.367.254.62.614.76 1.077.135.445.17.828.104 1.15a1.92 1.92 0 01-.35.805z"/><path fill="#ff7200" d="M9.902 42.52C42.596 29.95 78.262 24.916 113 28.647l-2.917 4.27c-13.036-1.427-25.065-1.925-38.618-1.098-17.513 1.07-34.935 4.023-51.73 9.149-6.493 1.983-13.07 4.141-19.239 7.028l.778-.85c.652-.693 1.293-1.477 2.026-1.826 2.184-1.042 4.345-1.933 6.602-2.802z"/></svg>