<svg xmlns="http://www.w3.org/2000/svg" width="117" height="46"><path fill="#fff" d="M22.472 20.83c0-.79-.026-1.298-.074-1.524-.133-.613-.57-.92-1.315-.92v-.29c2.165-.257 3.81-.549 4.934-.87V24c0 3.178.868 4.767 2.604 4.767.925 0 1.673-.424 2.243-1.27.57-.847.855-2.013.856-3.497v-3.17c0-.79-.025-1.298-.074-1.524-.133-.613-.57-.92-1.315-.92v-.29c1.9-.242 3.578-.532 5.034-.87l-.05 3v3.846c0 1.936.095 3.283.285 4.041.19.758.64 1.21 1.352 1.355v.411l-3.273-.048h-1.29c-.115-.37-.24-.83-.372-1.378a14.062 14.062 0 01-.173-.822c-.827 1.692-2.298 2.539-4.413 2.539-3.306 0-4.96-1.976-4.96-5.928zm15.223 8.01l1.389-3.99.346.047c.529 3 1.918 4.499 4.166 4.499.859 0 1.562-.218 2.108-.653.545-.435.817-1.008.817-1.717 0-.645-.272-1.128-.818-1.452-.413-.257-1.231-.532-2.454-.822-1.702-.418-2.868-.854-3.496-1.306-.777-.564-1.165-1.393-1.165-2.49 0-1.162.537-2.113 1.611-2.855 1.14-.79 2.645-1.184 4.513-1.184 1.785 0 3.454.355 5.008 1.064l-1.14 3.29-.322-.025c-.348-1.177-.857-2.076-1.526-2.697-.67-.62-1.442-.93-2.317-.93-.678 0-1.258.208-1.736.627-.48.42-.72.912-.72 1.476 0 .58.182 1.016.546 1.305.281.227 1.339.542 3.174.945 1.653.354 2.81.781 3.47 1.281.761.564 1.141 1.395 1.141 2.49 0 1.355-.594 2.431-1.785 3.23-1.19.798-2.859 1.197-5.008 1.197-2.1 0-4.033-.444-5.802-1.33-1.768-.888 0 0 0 0zm19.215-4.886c0 1.984.082 3.305.249 3.967.23.902.71 1.459 1.437 1.668v.29l-4.249-.048c-.393-.178-.646-.54-.761-1.089-.115-.548-.172-1.442-.172-2.684v-7.593h-1.388l.124-.702c2.017-1.032 3.512-2.443 4.488-4.233h.395a32.293 32.293 0 00-.123 3.072v.846h2.851l-.297 1.016H56.91zm4.96-8.154c0-.95-.067-1.57-.199-1.859-.182-.403-.58-.604-1.19-.604v-.267c1.95-.243 3.628-.535 5.033-.876 0 .806-.011 1.58-.033 2.32-.022.74-.044 1.441-.066 2.102v8.359c0 1.37.024 2.239.075 2.608.148 1.097.652 1.766 1.511 2.006l.001.29c-.395 0-1.05-.012-1.964-.036a224.65 224.65 0 00-1.446-.036c-.313 0-.897.012-1.753.036-.856.024-1.375.036-1.556.036v-.29c.71-.225 1.165-.683 1.363-1.376.149-.515.224-1.53.224-3.043zm20.256 13.668v.411l-3.05-.048h-1.09a6.69 6.69 0 01-.869-1.983c-.892 1.532-2.255 2.297-4.09 2.298-1.538 0-2.774-.357-3.707-1.073-.934-.716-1.4-1.637-1.4-2.762 0-2.813 2.966-4.22 8.9-4.219v-.098c0-2.901-.983-4.352-2.95-4.352-.976 0-1.765.327-2.369.98-.603.653-1.094 1.697-1.475 3.131h-.346l-1.141-3.603c1.818-.838 3.76-1.257 5.827-1.257 1.173-.001 2.185.136 3.037.41.851.274 1.52.67 2.01 1.185.485.517.787 1.101.904 1.754.115.652.173 1.56.173 2.721v1.112c0 1.936.094 3.281.285 4.04.19.758.64 1.208 1.35 1.353.711.146 0 0 0 0zm-5.306-6.651l-.57-.024c-1.34 0-2.36.302-3.062.904-.703.601-1.054 1.457-1.055 2.566 0 .867.19 1.553.571 2.06.38.505.877.758 1.488.758.941 0 1.616-.45 2.02-1.349.405-.9.608-2.288.608-4.168zm6.843 7.062v-.265c.71-.225 1.173-.709 1.389-1.448.147-.531.223-1.601.223-3.21v-4.128c0-.95-.067-1.57-.2-1.859-.18-.402-.578-.604-1.188-.603V18.1c1.867-.226 3.446-.515 4.735-.87v2.758c.86-2.047 2.347-3.072 4.462-3.072 1.72 0 2.988.488 3.807 1.461.818.973 1.226 2.458 1.226 4.454v2.123c0 1.61.075 2.68.224 3.211.214.757.677 1.24 1.389 1.449v.265c-.395 0-1.05-.012-1.964-.036a224.81 224.81 0 00-1.446-.036c-.329 0-.922.012-1.778.036-.857.025-1.376.036-1.557.036v-.265c.68-.21 1.124-.66 1.34-1.35.165-.549.247-1.521.247-2.921v-2.294c0-3.17-.87-4.754-2.614-4.754-.913 0-1.664.427-2.254 1.279-.59.853-.885 2.012-.884 3.475v1.69c0 1.432.025 2.35.075 2.75.148 1.176.66 1.884 1.536 2.125v.266c-.396 0-1.053-.012-1.97-.037-.918-.024-1.4-.036-1.45-.036-.332 0-.927.012-1.786.036-.86.025-1.38.036-1.562.036-.182 0 0 0 0 0zm27.596-1.91c-.976 1.467-2.397 2.2-4.265 2.2-1.934 0-3.509-.6-4.724-1.802-1.214-1.2-1.821-2.776-1.821-4.727 0-1.887.61-3.474 1.834-4.765 1.223-1.29 2.744-1.934 4.562-1.934 1.702-.001 3.1.636 4.191 1.91v-3.023c0-.822-.017-1.33-.05-1.523-.117-.63-.53-.944-1.24-.944v-.268c1.835-.258 3.462-.558 4.884-.899 0 .629-.012 1.315-.037 2.058-.024.74-.045 1.532-.062 2.37v7.572c0 3.37.52 5.178 1.563 5.42v.266c-.249 0-.612-.009-1.091-.026a39.65 39.65 0 00-1.067-.023h-.917c-.281 0-.595.015-.942.049a9.515 9.515 0 01-.818-1.91c-.215-.694 0 0 0 0zm-3.496-10.037c-1.058 0-1.877.48-2.455 1.44-.58.959-.868 2.357-.868 4.195 0 1.87.289 3.286.868 4.244.578.96 1.413 1.44 2.504 1.439 1.041 0 1.838-.47 2.393-1.414.553-.943.831-2.367.831-4.27 0-3.755-1.091-5.634-3.273-5.634zm-88.114 6.692c-.006.92.024 1.84.018 2.76-.001.35-.101.539-.421.71-3.808 2.034-7.791 2.622-11.977 1.346-2.202-.67-4.086-1.838-5.405-3.734-1.27-1.827-1.755-3.898-1.567-5.89.002-.066.003-.132.01-.196a8.391 8.391 0 011.914-4.593c.037-.044.074-.089.113-.133a10.254 10.254 0 011.16-1.163c1.759-1.503 3.958-2.34 6.593-2.51.122-.009.255-.008.38-.013.123-.007.246-.01.37-.013.1-.002.192-.01.295-.01h.411c.082 0 .27.01.421.019l.1.002-.001.004.074.005c.787.054 1.954.14 4.158.764.803.227 1.627.52 2.483.873l-1.253 4.219-.002-.003v.001h-.295s-1.29-4.588-5.91-4.88c-.073.003-.146.002-.22.01-1.892.198-3.208 1.177-4.068 2.798-.795 1.498-1.173 3.105-1.28 4.776-.131 2.076.001 4.12.854 6.067.212.484.467.943.778 1.373 1.211 1.678 3.06 2.218 5.065 1.722 1.356-.337 2.175-1.22 2.347-2.59a13.6 13.6 0 00-.005-3.427c-.088-.684-.494-1.157-1.138-1.435-.471-.203-.97-.313-1.477-.393-.073-.011-.148-.025-.222-.03-.192-.013-.293-.086-.279-.297.017-.244.182-.182.324-.176.774.034 1.548.083 2.323.1.775.018 1.55.005 2.325.005 1 .01 2-.006 3-.038v3.97h.004s.006-.92 0 0zm16.16 12.53c.468 0 .901.124 1.3.372.398.248.714.584.948 1.007.234.423.351.885.351 1.389 0 .503-.117.966-.35 1.389a2.718 2.718 0 01-.95 1.006 2.412 2.412 0 01-1.3.372 2.02 2.02 0 01-1.593-.723v3.24h-1.342v-7.884h1.342v.555a2.02 2.02 0 011.594-.723zm-.168 4.193c.258 0 .496-.064.713-.193.216-.13.39-.303.519-.52.129-.216.194-.454.194-.712 0-.259-.065-.496-.194-.713a1.48 1.48 0 00-.52-.52 1.366 1.366 0 00-.712-.193c-.259 0-.496.065-.713.194-.217.13-.39.302-.519.519a1.36 1.36 0 00-.194.713c0 .258.065.496.194.713.13.216.302.389.519.519.217.129.454.193.713.193zm5.996-4.193c.503 0 .966.124 1.39.372a2.78 2.78 0 011.006 1.007c.247.423.372.885.372 1.389 0 .503-.125.966-.372 1.389a2.78 2.78 0 01-1.007 1.006 2.695 2.695 0 01-1.389.372c-.503 0-.966-.124-1.389-.372a2.777 2.777 0 01-1.006-1.006 2.694 2.694 0 01-.372-1.39c0-.503.124-.965.372-1.388a2.777 2.777 0 011.006-1.007 2.696 2.696 0 011.39-.372zm0 4.193c.259 0 .496-.064.713-.193.216-.13.39-.303.519-.52.13-.216.194-.454.194-.712 0-.259-.065-.496-.194-.713a1.48 1.48 0 00-.519-.52 1.366 1.366 0 00-.713-.193c-.258 0-.496.065-.713.194-.216.13-.39.302-.519.519a1.369 1.369 0 00-.194.713c0 .258.065.496.194.713.13.216.303.389.52.519.216.129.454.193.712.193zm3.732-4.025c.007-.699.131-1.265.372-1.698.241-.433.676-.65 1.305-.65.182 0 .33.012.446.036.115.025.246.069.393.132v1.174a2.598 2.598 0 00-.514-.063c-.21 0-.361.043-.456.13a.559.559 0 00-.173.336 4.27 4.27 0 00-.031.603h1.174v1.174H46.71v4.025h-1.342v-4.025h-.67v-1.174zm3.816 1.174h-.671v-1.174h.67v-1.845h1.343v1.845h1.006v1.174h-1.006v2.18c0 .273.042.465.125.577.084.112.214.168.388.168.112 0 .276-.025.493-.074v1.174c-.28.112-.608.168-.985.168-.462 0-.804-.148-1.028-.445-.223-.297-.335-.698-.335-1.2zm7.59-3.354c0 .272-.069.524-.205.754a1.54 1.54 0 01-.55.55c-.23.137-.482.205-.755.205s-.524-.068-.755-.204a1.539 1.539 0 01-.55-.55 1.457 1.457 0 01-.205-.755h.713c0 .216.079.403.236.56a.766.766 0 00.56.236.76.76 0 00.567-.236.774.774 0 00.23-.56zm.922 2.18v5.2h-1.342v-.556a2.02 2.02 0 01-1.593.723c-.469 0-.902-.124-1.3-.372a2.708 2.708 0 01-.949-1.006 2.818 2.818 0 01-.35-1.39c0-.503.116-.965.35-1.388.234-.423.55-.759.949-1.007a2.414 2.414 0 011.3-.372c.643 0 1.174.241 1.593.723v-.555zm-2.767 4.025c.258 0 .496-.064.712-.193.217-.13.39-.303.52-.52.129-.216.193-.454.193-.712a1.36 1.36 0 00-.194-.713 1.48 1.48 0 00-.519-.52 1.366 1.366 0 00-.712-.193c-.26 0-.497.065-.713.194-.217.13-.39.302-.52.519a1.368 1.368 0 00-.193.713c0 .258.064.496.194.713.129.216.302.389.519.519.216.129.454.193.712.193zm9.812-4.193c.468 0 .901.124 1.3.372.398.248.714.584.948 1.007.234.423.351.885.351 1.389 0 .503-.117.966-.35 1.389a2.718 2.718 0 01-.95 1.006 2.412 2.412 0 01-1.3.372 2.02 2.02 0 01-1.593-.723v.555h-1.342v-7.38h1.342v2.736a2.02 2.02 0 011.594-.723zm-.168 4.193c.258 0 .496-.064.713-.193.216-.13.39-.303.519-.52.129-.216.193-.454.193-.712 0-.259-.064-.496-.193-.713a1.48 1.48 0 00-.52-.52 1.366 1.366 0 00-.712-.193c-.259 0-.496.065-.713.194-.217.13-.39.302-.519.519a1.36 1.36 0 00-.194.713c0 .258.065.496.194.713.13.216.302.389.519.519.217.129.454.193.713.193zm5.262 1.342c-.608 0-1.085-.199-1.43-.597-.347-.398-.52-.982-.52-1.75v-3.02h1.342v2.851c0 .406.082.703.247.891.164.189.417.283.76.283.335 0 .615-.113.838-.34.224-.227.336-.561.336-1.001v-2.684h1.342v5.2h-1.342v-.504a1.855 1.855 0 01-.65.503c-.245.112-.552.168-.923.168zm6.877-5.535c.608 0 1.085.2 1.431.598.346.398.519.982.519 1.75v3.02H77.32V39.67c0-.405-.08-.702-.241-.891-.16-.188-.416-.283-.765-.283-.329 0-.607.112-.834.336-.227.223-.34.559-.34 1.006v2.683h-1.342v-5.199h1.342v.503c.188-.223.405-.391.65-.503.244-.112.552-.168.922-.168zm7.191-2.012c0 .272-.068.524-.204.754a1.54 1.54 0 01-.55.55 1.454 1.454 0 01-.755.205 1.46 1.46 0 01-.755-.204 1.539 1.539 0 01-.55-.55 1.456 1.456 0 01-.205-.755h.713c0 .216.079.403.236.56a.766.766 0 00.56.236.76.76 0 00.567-.236.774.774 0 00.23-.56zm.923 2.18v5.2h-1.342v-.556a2.02 2.02 0 01-1.593.723c-.469 0-.902-.124-1.3-.372a2.708 2.708 0 01-.949-1.006 2.818 2.818 0 01-.351-1.39c0-.503.117-.965.351-1.388.234-.423.55-.759.949-1.007a2.414 2.414 0 011.3-.372c.643 0 1.174.241 1.593.723v-.555zm-2.768 4.025c.259 0 .497-.064.713-.193.217-.13.39-.303.52-.52.128-.216.193-.454.193-.712 0-.259-.065-.496-.194-.713a1.48 1.48 0 00-.519-.52 1.366 1.366 0 00-.713-.193c-.258 0-.496.065-.712.194-.217.13-.39.302-.52.519a1.368 1.368 0 00-.193.713c0 .258.064.496.194.713.129.216.302.389.519.519.216.129.454.193.712.193z"/><path fill="#1abf39" d="M74.833 1.869c-3.822 1.54-5.556 4.387-6.967 7.736 1.55-1.588 4.598-3.823 9.978-4.671 0 0-7.292 3.354-9.622 6.853 2.429.702 5.092 1.325 7.685 1.052 2.947-.31 5.726-2.168 7.713-4.205 1.225-1.253 2.182-2.584 3.075-4.071.496-.823.909-1.936 1.62-3.231-4.892-.263-9.405-1.109-13.482.537"/></svg>