<svg xmlns="http://www.w3.org/2000/svg" width="111" height="54"><path fill="#297fff" d="M108.784 32.488c-.637.268-1.06.415-1.753.09a1.72 1.72 0 01-.498-.352c-.423-.432-.581-1.038-.734-1.623-.123-.47-.238-.913-.48-1.234a1.897 1.897 0 00-.163-.19c-.612-.625-1.435-.607-2.146.046-.16.117-.165.17-.165.17 0 .003.005.022.037.054.09.093.283.194.487.302.134.07.275.144.41.228 1.88 1.148 2.662 2.014 2.535 2.813-.077.483-.493.905-1.31 1.326l-.394.21c-.853.457-1.47.788-2.105.14-.27-.275-.543-.733-.86-1.44a1.076 1.076 0 00-.211-.317c-.434-.442-1.248-.374-1.776.15-.287.284-.442.564-.46.833-.022.32.157.633.522.918.231.181.649.287 1.09.4.609.155 1.238.315 1.626.71.189.193.302.426.338.693.096.715-.56 1.567-1.255 2.468-.13.17-.263.341-.39.513-.29.387-.592.588-.925.614-.362.028-.728-.153-1.149-.568a165.772 165.772 0 01-2.014-2.023l-1.567-1.6c-.137-.14-.287-.28-.438-.42-.161-.15-.325-.303-.48-.46a4.19 4.19 0 01-.532-.642c-.613-.938.163-1.772.73-2.38l.195-.211a40.23 40.23 0 016.446-5.764c.165-.119.343-.256.532-.402 1.216-.939 2.883-2.225 4.166-.917.455.464.908.93 1.36 1.397.784.806 1.567 1.613 2.361 2.407l.078.078c.63.642.98 1.156 1.073 1.572.295 1.32-1.377 2.057-2.18 2.41zm-6.716-.406c.161.165.292.359.39.578.264.592.494.988.682 1.18.113.115.157.158.724-.131a6.66 6.66 0 01-.51-.968 1.772 1.772 0 00-.354-.525c-.38-.386-.907-.549-1.44-.5.185.092.358.213.508.366zm.401-5.83c-.196.15-.382.294-.555.418a39.434 39.434 0 00-6.304 5.635c-.064.072-.134.146-.205.223-.678.728-.815 1.003-.637 1.277.1.153.235.313.423.505.145.148.298.29.45.432.162.15.32.299.467.448l1.568 1.6c.586.597 1.282 1.304 2.002 2.013.326.32.456.314.457.314.025-.002.127-.053.28-.258l.05-.066c-.665-.657-1.308-1.31-1.857-1.87l-1.568-1.6a13.49 13.49 0 00-.462-.443c-.157-.145-.31-.288-.456-.437a3.55 3.55 0 01-.444-.532c-.262-.402-.022-.771.655-1.498.08-.085.144-.154.203-.22a39.598 39.598 0 016.333-5.661c.169-.122.35-.262.542-.41.611-.471 1.168-.877 1.668-1.112-.59-.185-1.394.302-2.61 1.241zm5.079 4.178c-.136-.518-.276-1.052-.6-1.485a2.654 2.654 0 00-.226-.262c-.479-.488-1.072-.707-1.672-.66a2.5 2.5 0 01.74.526 2.7 2.7 0 01.24.28c.347.462.492 1.013.63 1.547.13.493.252.96.508 1.221.07.07.148.126.24.17.28.131.413.136.75.008-.325-.293-.467-.796-.61-1.345zm-17.38-5.464c1.328-1.517 3.677-3.658 4.562-4.463l.244-.223c.103-.096.106-.147.106-.157 0-.018-.02-.044-.054-.07-.23-.183-.998-.347-2.465-.264-.349.02-.601-.036-.771-.17a.599.599 0 01-.224-.464c-.026-.674.79-1.653 1.188-2.021l.079-.074c.182-.173.487-.463.958-.739 1.234-.724 3 .262 3.58.585.678.378 1.37.843 2.004 1.343 1.134.896 2.614 2.324 3.225 4.034.167.47.133.928-.104 1.363-.461.845-1.634 1.444-2.592 1.663-.363.082-.655.038-.87-.132-.351-.277-.415-.823-.47-1.303-.024-.205-.046-.398-.087-.552-.076-.284-.138-.366-.168-.39-.063-.05-.357.174-.454.248a8.464 8.464 0 00-1.083.969c-.928 1-1.698 1.951-2.355 2.908a18.554 18.554 0 00-1.729 3.072l-.027.065c-.197.456-.495 1.146-1.022 1.31-.248.077-.513.028-.785-.144l-.323-.2c-.42-.258-.943-.578-1.39-.932-.157-.123-.172-.7-.092-1.434.26.55.905.982 1.33 1.255.189.122.943.703 1.099.496.177-.236.246-.261-.026-.435-.281-.18-.563-.341-.831-.54-1.096-.812-1.25-1.018-.593-2.036.91-1.408 2.595-3.19 3.793-4.348.874-.846 1.857-1.618 2.687-2.506.492-.455.405-1.146-.197-1.446-.61-.305-1.375-.313-2.04-.309.734.086 1.9.417 1.677 1.41-.123.546-.763.961-1.156 1.322-1.32 1.212-2.646 2.435-3.842 3.772-.446.499-1.342 1.547-1.754 2.378.216-1.166.586-2.401.972-2.841zm2.362-6.072c-.142.254.638.318.737.064.403-.886 1.082-1.573 1.706-1.998-.996-.079-2.052 1.1-2.443 1.934zm-3.334 8.913a14.1 14.1 0 00-.147.987 1.334 1.334 0 01-.035-.081c-.086-.217.001-.54.182-.906zm11.128-4.135a.304.304 0 000-.006c-.092-.79-.442-1.991-1.463-1.437.498.394.536 1.14.61 1.717.051.418.022.56.464.429.526-.158.446-.21.389-.703zm-9.21-7.478c-.326 1.437-.79 2.973-1.457 4.835-.731 2.038-1.506 3.764-2.37 5.274-.747 1.308-1.56 1.264-2.63.769a11.27 11.27 0 00-.44-.188c-.165-.069-.337-.14-.505-.217-.62-.287-1.33-.73-1.318-1.616.001-.158.007-.44.016-.806.037-1.636.117-5.18.014-6.997-.687 1.589-1.106 2.625-1.636 4.136l-.079.234c-.254.762-.725 2.18-1.522 2.543a.952.952 0 01-.792.004c-.38-.16-.727-.285-1.032-.395a10.569 10.569 0 01-.82-.32c-.47-.217-.915-.52-.996-1.264-.193-1.76 3.526-8.351 4.457-9.889.05-.082.104-.175.163-.277.644-1.101 1.84-3.152 3.503-2.383l.402.184c.834.386 1.409.72 1.785 1.799.529 1.51.697 3.137.825 4.731.124-.459.26-1.004.392-1.54.25-1.007.466-1.877.59-2.147.463-1.013 1.694-.444 2.099-.257.183.085.358.175.518.257.126.066.241.125.34.171l.034.015c1.193.552.833 1.914.57 2.908-.04.154-.079.3-.11.436zM76.729 20.6c-.274.728-.555 1.579.322 1.967.204.09-.105-.029.534.236.459.191 1.09.506 1.406.541.288.033.392-.365.394-.373a30.612 30.612 0 01-.891-.381c-1.052-.447-1.383-.653-1.439-.94-.04-.21.4-1.295.622-1.831.725-1.753 1.627-3.437 2.536-5.093.808-1.477 1.648-3.071 2.754-4.345-1.094-.535-5.336 7.83-6.238 10.219zm9.22 5.452a12.06 12.06 0 00-.467-.2 11.75 11.75 0 01-.478-.205c-.756-.35-.908-.635-.904-.955.001-.141.007-.379.014-.689l.002-.1c.047-2.07.144-6.36-.053-7.812a.542.542 0 00-.455-.46.537.537 0 00-.564.316l-.025.059c.12.11.205.259.228.43.2 1.467.101 5.771.055 7.84-.008.357-.015.632-.016.787-.003.202.056.446.8.79.156.073.316.138.47.202.163.067.32.132.474.203.688.318.963.338 1.267-.06a4.604 4.604 0 01-.348-.146zM88.4 13.24c-.05.212-.274 1.033-.462 1.79-.225.906-.456 1.837-.635 2.379a.53.53 0 00.197.071.538.538 0 00.575-.346c.18-.493.436-1.519.682-2.51.147-.595.282-1.13.385-1.509-.495-.196-.69-.097-.742.125zm-10.85-1.65c-1.802 4.33-2.618 7.071-2.945 8.32-.144.555-.414 1.586-1.116 1.853-.449.171-.949.059-1.334-.058a10.788 10.788 0 01-.5-.17 6.73 6.73 0 00-.617-.195 7.224 7.224 0 01-.277-.075c-.243-.074-.546-.19-.74-.443-.42-.548-.283-1.342-.183-1.923.384-2.236 3.55-10.367 5.067-11.69.66-.575 1.584-.401 2.485-.128l.489.151.086.026c.432.132.704.337.83.63.252.585-.139 1.38-.633 2.385-.205.417-.417.848-.613 1.317zm-6.803 7.007c-.209.761-.412 1.647.49 1.92.21.065-.106-.015.55.167.472.131 1.125.364 1.44.358.289-.006.357-.415.358-.424a29.43 29.43 0 01-.917-.265c-1.08-.31-1.426-.472-1.506-.75-.06-.205.283-1.345.457-1.909a54.694 54.694 0 011.965-5.443c.675-1.578 1.367-3.278 2.352-4.692-1.13-.393-4.502 8.537-5.189 11.038zm-1.01-7.751a1.737 1.737 0 01-.834-.506c-.204-.217-.325-.461-.442-.697-.256-.517-.483-.96-1.488-1.141-1.046-.189-2.222.337-2.997 1.339-.74.958-.961 2.338-.563 3.515.291.863.867 1.465 1.578 1.652.62.162 1.34.008 2.084-.448a2.205 2.205 0 011.687-.251c.78.204 1.27.812 1.313 1.626.052.999-.536 1.88-1.749 2.62-1.586.97-3.478 1.268-5.19.82l-.001-.001a5.994 5.994 0 01-2.8-1.643c-2.005-2.085-2.501-5.51-1.235-8.52 1.08-2.572 3.12-4.402 5.457-4.896a7.302 7.302 0 013.294.089c1.644.431 2.895 1.39 3.524 2.698.297.617 1.147 2.7-.353 3.583a1.744 1.744 0 01-1.285.16zm-7.977 5.848c-2.088-2.172-2.053-5.454-1.09-7.743a8.37 8.37 0 011.85-2.756c-1.092.786-2.005 1.947-2.6 3.364-.939 2.235-.977 5.435 1.056 7.55a5.033 5.033 0 002.384 1.398c1.292.34 2.706.183 3.963-.422a5.85 5.85 0 01-3.095.058 5.212 5.212 0 01-2.468-1.449zm9.07-7.08a1.035 1.035 0 01-.495-.303c-.133-.14-.225-.328-.322-.526-.259-.52-.58-1.167-1.693-1.459a4.19 4.19 0 00-.31-.068c-.755-.136-1.557.02-2.281.41a3.433 3.433 0 011.723.023c1.192.312 1.547 1.03 1.806 1.553.097.194.18.362.293.482a.86.86 0 00.41.253.863.863 0 00.61-.067.775.775 0 00.285-.292c-.01-.003-.018-.003-.026-.005zm-15.465 9.187a11.44 11.44 0 00-.668.043c-.254.02-.515.042-.776.048a3.56 3.56 0 01-.978-.087c-.328-.092-.55-.265-.663-.516-.252-.563.125-1.341.374-1.856l.033-.069.127-.258c.348-.704.873-1.767.536-2.178-.043-.052-.2-.172-.735-.16-.815.021-1.922.336-2.21.498-.784.441-.11 2.016.178 2.688l.078.185c.248.535.276.952.082 1.266-.29.47-.985.551-1.692.569l-.296.004c-.087 0-.17.002-.249.004-1.447.035-2.5-.078-2.881-1.885-.896-4.237.308-9.956 4.322-12.792v-.001l.093-.064.207-.142.07-.047.023-.016c.093-.063.188-.124.284-.182l-.015-.012s-.47-.437-.47-.432a4.662 4.662 0 01-.43-.514 3.413 3.413 0 01-.345-.568 1.545 1.545 0 01-.164-.61c-.008-.345.175-.622.476-.724.175-.059.429-.089.77-.1l.221-.003.276-.021.934-.075c.007 0 .013.003.02.003.037-.004.08-.015.109-.017.609-.078.72-.091.747-.094h-.01c.747-.11.86-.125.885-.126h-.01l.516-.06a.726.726 0 01.408.096c.178.11.283.295.289.514.005.227-.06.469-.2.742a3.851 3.851 0 01-.462.694 5.55 5.55 0 01-.563.63c-.206.198-.418.38-.632.542-.077.058-.155.108-.232.158.47.255.952.628 1.439 1.119 1.32 1.329 2.333 3.178 2.852 5.205.46 1.791.616 3.904.451 6.11-.085 1.137-.403 2.45-2.118 2.492zm-5.526-1.317c-.661.023-1.52.156-2.127-.165-.808-.428-.816-1.887-.875-2.664-.205-2.655.354-5.459 1.725-7.751-1.794 2.392-2.513 5.588-2.275 8.546.07.87.067 2.43 1.174 2.604.615.097 1.302.056 1.92.007.523-.041.685-.042.458-.577zm.143-6.74c.002.06.015.073.075.071.057-.001.25-.043.455-.087.524-.114 1.4-.303 2.218-.324.496-.012.494-.093.49-.27-.02-.831-1.043-2.347-1.36-2.34-.55.015-1.901 1.983-1.878 2.95zm3.892-9.108a5.393 5.393 0 01-.3.311c-.377.366-.83.702-1.322.908-.54.226-.987-.165-1.45-.9-.16-.256-.277-.459-.593-.413-.158.023-.413.004-.3.243.225.595.812 1.25 1.328 1.585.9.582 2.22-1.067 2.637-1.734zm-1.3 4.672c-.375.01-.783.287-1.162.695.144-.063.287-.1.427-.104 1.15-.028 2.25 2.298 2.271 3.213.001.042 0 .084-.002.126.38-.147.565-.44.554-.892-.02-.817-1.076-3.062-2.089-3.038zm2.893 11.159c-.655.076-1.929.306-1.606-.45.28-.66.612-1.501.836-2.313.36-1.31.212-2.46-1.37-2.421-.904.022-2.493.192-3.028 1.054.918-.348 2.205-.68 3.169-.356 1.179.395.817 1.48.455 2.512-.087.248-.56 1.388-.749 1.867-.5 1.281 2.958.836 3.343-.078-.103.01-.753.15-1.05.185zm-10.846 1.784c-.389.173-1.021.331-1.59.463l-.459.105-.131.03c-.475.114-.86.22-1.23.323-.399.11-.81.223-1.329.344-.129.03-.29.076-.475.128-.258.073-.55.156-.867.229l-.006.001c-.607.14-2.425.557-3.03-.72-.621-1.315-1.106-4.377-1.197-4.977a55.865 55.865 0 01-.576-5.492c-.08-1.189-.244-3.661.884-3.922l2.631-.61c.333-.076.607-.02.814.17.596.541.405 2.048.302 2.858-.016.133-.03.243-.037.322-.116 1.36-.211 2.688-.106 3.971.059.729.322 3.158 1.204 3.807a.706.706 0 00.608.127c.28-.065.599-.278.946-.632.101-.103.208-.227.32-.355.364-.417.776-.89 1.238-.998.418-.096.793.116 1.115.633.272.436.501.821.734 1.278.037.074.085.16.138.258.325.592.816 1.486.602 2.126a.88.88 0 01-.503.533zm-.317-1.352a27.53 27.53 0 01-.872.215c-1.41.325-2.8.725-4.2 1.088-.645.167-1.534.416-2.174.095-.546-.274-.677-1.22-.815-1.748-.488-1.866-.764-3.793-.982-5.706-.194-1.706-.432-3.528-.275-5.247-1.175.223.197 9.177.836 11.69.195.766.307 1.815 1.261 1.866 1.081.058 2.242-.405 3.277-.677.823-.217 1.642-.438 2.47-.634.477-.11 1.155-.245 1.426-.408.248-.148.052-.526.048-.534zm-13.66-.314c-.22.298-.439.598-.657.898a4.924 4.924 0 01-.127.163c-.154.192-.314.39-.292.593.051.471.39.958.689 1.386l.157.228.78 1.158c.314.467.424.842.338 1.146-.063.222-.227.394-.485.509l-2.453 1.094c-.05.022-.099.046-.15.07-.054.026-.11.053-.166.078-.27.12-.59.223-.92.066-.387-.185-.607-.67-.784-1.06-.047-.103-.091-.2-.135-.285a40.797 40.797 0 01-2.087-4.675 37.678 37.678 0 01-1.523-5.08l-.013-.057a33.23 33.23 0 01-.36-1.798c-.141-.865.162-1.511.853-1.82l1.744-.78c.693-.309 1.386-.617 2.08-.922 1.398-.612 3.375-.743 4.732.728 1.132 1.225 1.481 3.132.869 4.743-.532 1.4-1.355 2.614-2.09 3.617zm-7.075-6.516c-.683.232.262 3.46.466 4.196.538 1.937 1.329 3.978 2.153 5.81.409.907.88 1.87 1.298 2.686.274.536.465.306.908.108l2.061-.92c.418-.186.319-.323.096-.67-.611.273-1.54.683-2.168.963-.296.132-.43.173-.549-.054-.38-.724-.752-1.587-1.111-2.346-1.464-3.096-2.57-6.392-3.154-9.773zm5.49 1.336c-.38-.86-1.32-.552-1.707-.379-.356.16-.66.318-.79.66-.191.5.006 1.394.604 2.73.16.36.232.369.386.3.586-.262 1.838-2.565 1.508-3.311zm1.032-1.284c-.431-.977-1.47-1.268-2.648-.743-.345.154-.89.427-1.168 1.059a1.318 1.318 0 00-.072.25c.274-.247.583-.388.788-.48 1.276-.57 2.407-.242 2.883.834.094.212.128.465.117.739.303-.552.288-1.235.1-1.66zM20.238 29.46c-.499.283-1.164.626-1.901.78-.9.187-1.751-.002-2.466-.55-.958-.733-1.584-2.038-1.676-3.49-.116-1.818.782-3.165 2.91-4.37.029-.017.083-.052.007-.181-.147-.247-.69-.556-1.203-.265-.239.135-.443.379-.608.727a8.573 8.573 0 00-.104.227c-.245.542-.565 1.232-1.16 1.447-.452.163-.878.16-1.23-.01-.365-.176-.647-.529-.817-1.021-.634-1.842.813-3.442 2.245-4.252.746-.422 1.56-.678 2.233-.703 2.591-.096 3.953 2.413 5.047 4.429.18.33.353.652.527.952l.386.664c.39.67.793 1.36 1.165 2.057l.063.112c.12.21.27.472.244.74-.045.457-.393.685-.648.851a125.56 125.56 0 01-3.014 1.856zm-3.16-9.547c-.445-.216-1.03-.333-1.728.08-.742.438-.972 1.194-1.436 1.864-.515.742-.98.033-1.078-.605-.215.64-.09 2.027.88 1.697-.035.013-.09.033.02-.006.401-.143.683-.852.845-1.194.244-.515.54-1.01 1.075-1.236.835-.354 2.047.007 2.333.94.188-.753-.54-1.36-.91-1.54zm2.601 3.066c-1.152-1.519-2.843.483-2.804 1.79.234-.692.855-1.425 1.623-1.494.708-.064 1.105.517 1.398 1.073.251.448.571.91.636 1.431.478-.823-.338-2.123-.853-2.8zm-1.906 3.088c.322.573 1.002.584 1.509.297.523-.296.445-.492.122-1.068l-.354-.635c-.116-.218-.238-.443-.39-.487-.075-.022-.167-.001-.28.063-.573.324-.963 1.194-.607 1.83zm2.58 1.65c-.728.437-1.55.92-2.42.956-1.83.073-2.74-2.094-2.737-3.64-.553 1.825.72 4.798 2.959 4.33.948-.198 1.783-.757 2.6-1.252.476-.289.952-.577 1.422-.877.238-.15.48-.299.71-.461.195-.138.014-.274-.08-.448a8.727 8.727 0 00-.052-.096 74.41 74.41 0 01-2.402 1.489zm-7.071 1.446c.462.228.859.434 1.295.697a8 8 0 00.252.146c.587.331 1.473.831 1.626 1.489a.885.885 0 01-.148.718c-.24.354-.694.823-1.107 1.235l-.336.334-.095.096c-.345.348-.615.64-.877.925-.28.305-.572.62-.948.995-.094.095-.208.22-.337.361-.181.2-.386.425-.617.655-.437.436-1.77 1.765-2.957.997-1.217-.787-3.235-3.133-3.627-3.595a55.238 55.238 0 01-3.227-4.16l-.143-.202c-.69-.968-2.126-2.983-1.305-3.801l1.917-1.913c.242-.24.505-.338.78-.287.79.144 1.418 1.526 1.756 2.268.055.122.101.223.137.295.615 1.217 1.23 2.396 1.992 3.43.433.589 1.93 2.514 3.02 2.598.52.04.86-.384 1.056-1.253.032-.142.058-.303.086-.471.09-.548.192-1.169.528-1.504.305-.303.735-.322 1.28-.053zm-3.376 7.095c-.607.057-1.216-.678-1.61-1.054-1.392-1.327-2.637-2.818-3.826-4.329-1.06-1.347-2.217-2.769-2.985-4.312-.882.812 4.98 7.694 6.842 9.491.566.548 1.211 1.38 2.049.917.949-.523 1.692-1.531 2.43-2.311.585-.62 1.165-1.242 1.766-1.847.347-.347.854-.821.999-1.103.132-.257-.233-.474-.24-.48-.175.19-.446.464-.63.646-1.026 1.023-1.998 2.099-2.997 3.149-.46.484-1.086 1.166-1.798 1.233z"/><path fill="#fff" d="M59.802 29.936c.05.1-.037.324-.062.41-.21.66-.458 1.52.21 1.383.645-.124.558.075.509.561-.062.46-.161.884-.298.96-.322.186-.867-.462-.941.21-.038.337-.075 1.645-.025 2.218.087 1.071.334 1.757.57 2.242.124.262.161.362 0 .51-.806.749-1.76 1.184-2.194.96-.57-.299-1.313-2.317-.632-5.593.087-.436-.024-.61-.16-.635-.372-.062-.422.212-.695.212-.173 0-.148-.237-.148-.336-.025-.225.123-.848.285-1.296.136-.336.36-.075.669-.1.31-.025.372-.299.384-.71.012-.41.347-.473.657-.623.396-.174 1.239-.423 1.45-.473.099-.025.334-.087.421.1zM34.09 43.613c.26-.062.694-.012.98.249.383.361.47.797.396 1.233-.062.25-.15.486-.347.698a1.502 1.502 0 01-.446.336c-.174.075-.31.05-.285-.174.012-.137-.038-.536-.397-.598-.31-.062-.421-.013-.657.124-.173.113-.396.474-.458 1.034-.137 1.084.024 2.305.21 3.289.199 1.046.41 1.27-.21 1.27h-1.562c-.508 0-.508-.025-.644-.971-.136-.922-.21-4.074.012-5.643.087-.56.112-.623.483-.623h1.426c.384 0 .235.262.334.523.037.112.161.075.322-.112.397-.486.67-.573.843-.635zM23.53 42.03c.187-.498.323-.523.83-.648.385-.112 1.34-.249 2.22-.274.582-.012.817-.025 1.499.025.954.087 2.07.436 2.38.735.309.299.309.46.222.785 0 0-.186.76-.446 1.669-.062.249-.173.174-.26.037-.41-.585-.917-1.233-1.301-1.258-.174-.012-.26.025-.372.162-.36.448-.533 2.18-.546 3.463-.024 1.495.397 3.214.558 3.8.112.386.161.56-.297.56h-1.97c-.434 0-.484-.038-.596-.15-.26-.261-.322-1.98-.297-2.28 0 0 .087-2.802.335-4.384.074-.51.186-.947.012-1.083-.186-.15-1.512.448-2.243 1.27-.1.124-.31.212-.26-.037.31-1.807.47-2.255.533-2.392zm13.461 4.72c.335-.161 1.363-.473 1.363-.473.174-.062.26-.186.248-.423-.012-.2-.136-.423-.397-.56-.322-.15-.916-.113-1.226.161-.41.374-.236.561-.496.524-.236-.025-.756-.224-.868-.76-.062-.324.1-.81.533-1.158.843-.673 2.665-.549 3.532-.125 1.19.585 1.326 1.67 1.326 2.678v3.176c0 .885.161 1.047.013 1.209-.124.124-.323.074-.471.074H38.18c-.756 0-1.946-.037-2.516-1.096-.36-.66-.273-1.532.124-2.18.26-.46.694-.81 1.202-1.046zm1.004 2.617c.136.137.36.187.446.15.161-.063.248-.175.248-.486 0-.86.05-.972-.1-1.097a.413.413 0 00-.384-.05c-.272.1-.408.412-.458.673-.037.3.012.61.248.81zm1.642-15.172l2.008-.872c.434-.187.409-.112.52.174 0 0 .112.424.347 1.383.31 1.37.422 2.33-.83 3.388-.942.797-2.838.91-3.767.598-1.537-.486-2.33-1.42-2.714-3.014-.372-1.595-.248-3.949 1.276-5.544a4.88 4.88 0 012.702-1.395c.57-.087 2.169-.2 2.85.61.298.35.459.81.31 1.321-.173.56-.756 1.084-1.301 1.233-.273.075-.645.112-.756-.012-.124-.113.074-.237.074-.56 0-.486-.396-.599-.657-.611-.409-.025-.718.162-.93.348-.941.835-1.077 2.318-1.065 2.978.012.448.062 1.918.917 2.416.273.175.694.262 1.004.087.322-.174.52-.336.57-.909.062-.573-.372-1.146-.545-1.22-.41-.188-.36-.25-.013-.399zm3.564 9.629a1.578 1.578 0 011.004-.224c.495.05 1.102.473 1.016-.461-.05-.511-.112-.71-.161-1.06-.15-.884-.038-.796.384-.796h1.437c.372-.013.397.062.471.622.236 1.582.422 6.291.285 8.197-.074.971-.136.971-.644.971l-1.599.013c-1.066 0-1.995.075-2.95-.984-.966-1.084-1.016-3.388-.396-4.87.124-.275.583-1.084 1.153-1.408zm.83 4.372c.05.386.174.747.496.872.198.087.371.012.483-.062.508-.399.421-3.04.372-3.438-.025-.324-.087-.511-.273-.598-.148-.075-.322-.013-.458.1-.67.585-.694 2.64-.62 3.126zm5.032-4.36h1.426c.421 0 .495.037.384.797-.248 1.732-.186 3.413.111 5.17.174 1.046.41 1.283-.21 1.27H49.2c-.496 0-.496-.025-.632-.971-.137-.922-.211-4.074.012-5.643.074-.56.112-.623.483-.623zm1.649-2.579c.26.25.31.598.235.947-.074.324-.235.573-.62.723-.297.112-.941.112-1.288-.088-.323-.186-.459-.535-.446-.896.012-.499.384-.91.867-.997.47-.074.967 0 1.252.311zm-3.551-9.666h1.574c.495 0 .495.025.632.972.05.386.124 1.358.136 2.33.025 1.332.037 2.528-.1 3.425-.074.56-.185.586-.557.623l-1.264.124c-.297.013-.335 0-.496-.348-.111-.237-.26-.275-.446-.112-.52.435-1.289.647-1.995.299-1.24-.61-1.14-1.906-1.177-2.853-.05-.972.087-3.102.136-3.488.136-.947.136-.972.644-.972h1.562c.545 0 .372.212.21 1.259-.098.697-.185 1.395-.21 1.843-.05.997.05 2.105.409 2.354a.41.41 0 00.483-.025c.372-.274.41-1.444.41-2.341 0-.449-.1-1.283-.162-1.831-.124-.922-.335-1.259.21-1.259zm3.16 4.435c.273-.46.273-.162.373.037.409.735.917 1.171 1.511 1.259.31.05.62-.038.756-.225a.612.612 0 00.137-.548c-.062-.299-.397-.548-.88-.772l-.186-.1c-1.128-.598-1.55-1.133-1.624-2.068-.049-.46.211-1.345.843-1.768.88-.586 2.194-.623 3.074-.237.334.137.867.423 1.065.884.075.162.013.349-.148.598-.075.112-.149.262-.471.586-.236.236-.322.2-.446 0-.26-.386-.645-.71-1.165-.71-.211 0-.372.075-.459.224-.111.187-.111.336-.062.436.075.274.41.46.843.673l.235.124c1.14.586 1.822.947 1.872 2.192.024.71-.236 1.495-1.153 2.056-.843.523-2.38.56-3.247.074a2.134 2.134 0 01-1.078-1.719c-.012-.249.025-.672.21-.996zm1.358 7.96c.136-.337.36-.075.67-.1.31-.025.371-.299.384-.71.012-.411.347-.473.656-.623.397-.174 1.24-.423 1.45-.473.1-.025.335-.088.422.1.05.1-.037.323-.062.41-.211.66-.459 1.52.21 1.383.645-.124.558.075.508.56-.061.462-.16.885-.297.96-.322.187-.867-.461-.942.212-.037.336-.074 1.644-.024 2.217.086 1.071.334 1.756.57 2.242.123.261.16.361 0 .51-.806.748-1.76 1.184-2.194.96-.57-.299-1.314-2.317-.632-5.593.087-.436-.025-.61-.161-.635-.372-.063-.421.212-.694.212-.174 0-.149-.237-.149-.337-.025-.224.124-.847.285-1.295zm2.031 7.825c.093-.068.195-.161.322-.161.475 0 .84.52.84.962 0 .98-1.035 1.388-1.526 1.388-.026 0-.068-.017-.068-.042 0-.034.22-.298.22-.647 0-.716-.66-.682-.66-.767 0-.043.143-.145.169-.162zm4.489-8.884c-.298.112-.942.112-1.29-.088-.321-.186-.458-.535-.445-.896.012-.499.384-.91.867-.997.471-.074.967 0 1.252.311.26.25.31.598.235.947-.074.324-.235.573-.62.723zm-1.264.909h1.425c.421 0 .495.037.384.797-.248 1.732-.186 3.413.111 5.17.174 1.046.41 1.283-.21 1.27H57.07c-.496 0-.496-.025-.632-.971-.136-.922-.21-4.074.012-5.643.075-.56.112-.623.484-.623zm3.991.137a3.304 3.304 0 011.029-.336c.805-.125 2.02.012 2.825.897 1.029 1.17 1.029 3.276.78 4.21-.284 1.059-.706 2.006-1.92 2.417-.917.311-2.367.186-3.11-.411-1.153-.922-1.314-2.878-1.215-3.862.062-.772.458-2.292 1.611-2.915zm.843 4.485c.136.373.322.585.595.66.223.05.433-.038.62-.225.507-.498.52-1.893.433-2.366-.087-.436-.21-.822-.545-1.047-.248-.15-.583-.062-.732.05-.755.474-.57 2.392-.371 2.928zm2.757-9.741c-.112-.237-.26-.275-.446-.113-.52.436-1.29.648-1.996.3-1.239-.61-1.14-1.906-1.177-2.853-.05-.972.087-3.102.136-3.488.137-.947.137-.972.645-.972h1.561c.546 0 .372.212.21 1.259-.098.697-.185 1.395-.21 1.843-.05.997.05 2.105.41 2.354a.41.41 0 00.482-.025c.372-.274.41-1.444.41-2.341 0-.449-.1-1.283-.162-1.831-.124-.922-.334-1.259.211-1.259h1.574c.496 0 .496.025.632.972.05.386.124 1.358.136 2.33.025 1.332.038 2.528-.099 3.425-.074.56-.186.586-.557.623l-1.265.124c-.297.013-.334 0-.495-.348zm2.523 4.559h1.673c.421 0 .186.573.173.785-.037.298.087.286.36.037.533-.498 1.326-.685 2.032-.337 1.227.623 1.14 1.906 1.178 2.853.037.984-.1 3.102-.15 3.488-.136.946-.136.971-.631.971H70.11c-.62 0-.384-.224-.21-1.27.098-.548.136-1.246.16-1.707.05-.996 0-2.23-.36-2.466a.408.408 0 00-.47.012c-.372.287-.421 1.57-.421 2.454 0 .461.074 1.159.16 1.707.174 1.046.41 1.27-.21 1.27h-1.561c-.508 0-.508-.025-.645-.971-.05-.386-.111-1.806-.124-2.778-.024-1.333.013-2.516.149-3.426.074-.56.1-.622.47-.622zm4.888-9.392c-.173.074-.31.05-.285-.175.013-.137-.037-.536-.396-.598-.31-.062-.422-.012-.657.125-.174.112-.396.473-.459 1.034-.136 1.083.025 2.304.211 3.288.198 1.046.41 1.27-.21 1.27h-1.562c-.508 0-.508-.024-.644-.971-.137-.922-.211-4.073.012-5.643.087-.56.112-.623.483-.623h1.426c.384 0 .235.262.334.523.037.113.161.075.322-.112.397-.485.67-.572.843-.635.26-.062.694-.012.979.25.384.36.47.797.397 1.233-.063.249-.15.486-.347.697a1.505 1.505 0 01-.447.337zm3.137-3.202c-.298.112-.942.112-1.289-.087-.322-.187-.459-.536-.446-.897.012-.498.384-.91.867-.997.471-.074.967 0 1.252.312.26.249.31.598.235.947-.074.323-.235.573-.62.722zm.446 8.147h-1.574c-.496 0-.496-.025-.632-.972-.136-.922-.21-4.073.012-5.643.075-.56.112-.623.484-.623h1.425c.421 0 .496.038.384.798-.248 1.731-.186 3.413.112 5.169.173 1.046.408 1.283-.211 1.27zm-.935 7.922c.334-.162 1.363-.474 1.363-.474.173-.062.26-.186.248-.423-.013-.2-.137-.423-.397-.56-.322-.15-.917-.113-1.227.161-.409.374-.235.561-.496.524-.235-.025-.755-.224-.867-.76-.062-.324.1-.81.533-1.158.843-.673 2.664-.549 3.532-.125 1.19.585 1.326 1.67 1.326 2.678v3.176c0 .885.16 1.047.012 1.209-.124.124-.322.074-.47.074h-2.368c-.756 0-1.945-.037-2.515-1.096-.36-.66-.273-1.532.124-2.18.26-.46.693-.81 1.202-1.046zm1.003 2.616c.137.137.36.187.447.15.16-.063.247-.175.247-.486 0-.86.05-.972-.099-1.097a.413.413 0 00-.384-.05c-.273.1-.409.412-.458.673-.038.3.012.61.247.81zm4.735-8.084h1.425c.434 0 .533-.088.385.797-.273 1.719-.446 5.966-.149 7.723.161 1.046.409 1.283-.223 1.27h-1.562c-.508 0-.508-.025-.632-.971-.136-.922.05-6.615.273-8.197.087-.56.112-.635.483-.622zm5.07 2.354c.67-.125 1.983-.037 2.602.772.372.474.508 1.27.347 1.819-.334 1.084-1.45 1.532-2.144 1.78-.396.126-1.04.3-1.127.699-.15.635.818.909 1.289.909.644 0 1.363-.174 1.772-.947.248-.473.248-.548.347-.062.037.212.037.947-.248 1.445-.484.884-1.475 1.258-2.194 1.27-.73.013-2.156-.224-2.887-1.258-.843-1.233-.855-3.027-.36-4.272.546-1.296 1.4-1.956 2.603-2.155zm-.558 3.152c.397.211 1.09-.374 1.264-.686.075-.174.124-.398.062-.56-.099-.324-.297-.324-.458-.324-.285-.013-.595.212-.781.536-.273.448-.248.946-.087 1.034z"/></svg>