<svg xmlns="http://www.w3.org/2000/svg" xmlns:xlink="http://www.w3.org/1999/xlink" viewBox="0 0 116.78 40.39"><defs><style>.cls-1{fill:none;}.cls-2{isolation:isolate;}.cls-3{fill:#f4f4f4;}.cls-4{clip-path:url(#clip-path);}.cls-5{clip-path:url(#clip-path-2);}.cls-6{fill:url(#linear-gradient);}.cls-7{clip-path:url(#clip-path-3);}.cls-8{fill:url(#linear-gradient-2);}.cls-9{clip-path:url(#clip-path-4);}.cls-10{fill:url(#linear-gradient-3);}.cls-11{clip-path:url(#clip-path-5);}.cls-12{fill:url(#linear-gradient-4);}.cls-13{fill:#ec7441;}.cls-14{fill:#e3483a;}.cls-15{fill:#f2a74d;}</style><clipPath id="clip-path" transform="translate(0 -0.61)"><rect class="cls-1" x="6.27" y="11.79" width="54.02" height="20.03"/></clipPath><clipPath id="clip-path-2" transform="translate(0 -0.61)"><path class="cls-1" d="M52.46,17.8h0c.38,1.82.76,3.63,1.14,5.47H50.47l2-5.48m-.4-4.15a1.78,1.78,0,0,0-1.85,1.23q-2.51,6-5,12c-.24.56-.47,1.12-.71,1.71h3.94c.07,0,.17-.11.2-.19.22-.58.44-1.17.64-1.77a.33.33,0,0,1,.37-.27c1.45,0,2.89,0,4.33,0,.29,0,.38.1.42.35.11.63.25,1.25.39,1.88h3.6v-.1c-.12-.51-.24-1-.35-1.52Q56.77,21,55.53,15.1c-.1-.48-.2-1-.31-1.45H52.06"/></clipPath><linearGradient id="linear-gradient" x1="38.79" y1="40.81" x2="38.88" y2="40.81" gradientTransform="matrix(508.76, 0, 0, -508.76, -19723.28, 20782.4)" gradientUnits="userSpaceOnUse"><stop offset="0" stop-color="#1f225a"/><stop offset="1" stop-color="#3b4092"/></linearGradient><clipPath id="clip-path-3" transform="translate(0 -0.61)"><path class="cls-1" d="M40.86,13.38a1.41,1.41,0,0,1-.22.06,6.87,6.87,0,0,0-3.71,1.44,4.25,4.25,0,0,0-1.66,3.93,3.54,3.54,0,0,0,1.57,2.49c.65.47,1.39.83,2.09,1.25a9.44,9.44,0,0,1,1.3.86,1.08,1.08,0,0,1-.12,1.77,2.88,2.88,0,0,1-1,.43,7,7,0,0,1-4-.5c-.26-.1-.52-.22-.8-.35L33.64,28l.11.07.32.12a12.33,12.33,0,0,0,5,.57,7.29,7.29,0,0,0,3.42-1.11,4.51,4.51,0,0,0,2.13-4.6,3.56,3.56,0,0,0-1.7-2.52c-.76-.5-1.59-.92-2.38-1.39a6.37,6.37,0,0,1-1-.71.85.85,0,0,1,0-1.33,2.48,2.48,0,0,1,.92-.49,5.08,5.08,0,0,1,2.45,0c.59.13,1.17.34,1.77.51.22-1,.44-2.07.67-3.15-.45-.13-.88-.27-1.3-.37s-1-.18-1.43-.27Z"/></clipPath><linearGradient id="linear-gradient-2" x1="38.79" y1="40.81" x2="38.88" y2="40.81" gradientTransform="matrix(508.76, 0, 0, -508.76, -19723.28, 20781.2)" xlink:href="#linear-gradient"/><clipPath id="clip-path-4" transform="translate(0 -0.61)"><path class="cls-1" d="M24.5,13.88c-1.26,3.22-2.54,6.43-3.81,9.65a2.21,2.21,0,0,1-.11.22c0-.17-.06-.29-.08-.41-.52-2.72-1-5.44-1.55-8.16a1.77,1.77,0,0,0-1.85-1.53H11c-.43,0-.43,0-.43.45l.15,0A19.23,19.23,0,0,1,14,15.22a2,2,0,0,1,1.21,1.49c1,3.87,2,7.73,3,11.59.06.22.14.31.39.31,1.17,0,2.34,0,3.51,0a.38.38,0,0,0,.41-.27q2.76-6.63,5.55-13.26c.19-.47.39-.93.59-1.42H24.84a.31.31,0,0,0-.34.23"/></clipPath><linearGradient id="linear-gradient-3" x1="38.79" y1="40.8" x2="38.88" y2="40.8" gradientTransform="matrix(508.76, 0, 0, -508.76, -19723.28, 20779.8)" xlink:href="#linear-gradient"/><clipPath id="clip-path-5" transform="translate(0 -0.61)"><path class="cls-1" d="M30.31,13.67,27.12,28.6h.32c1.06,0,2.12,0,3.19,0,.29,0,.39-.09.45-.37C32,24.13,32.84,20,33.71,15.91l.48-2.24Z"/></clipPath><linearGradient id="linear-gradient-4" x1="38.79" y1="40.8" x2="38.88" y2="40.8" gradientTransform="matrix(508.76, 0, 0, -508.76, -19723.28, 20780.88)" xlink:href="#linear-gradient"/></defs><g id="Shape_361_715_copy" data-name="Shape 361 715 copy" class="cls-2"><g id="Shape_361_715_copy-2" data-name="Shape 361 715 copy"><polygon class="cls-3" points="116.78 16.82 116.78 15.69 116.78 14.53 116.76 13.35 116.73 12.14 116.66 10.89 116.55 9.62 116.37 8.31 116.08 7.01 115.67 5.73 115.09 4.51 114.33 3.42 113.39 2.47 112.3 1.71 111.09 1.13 109.82 0.71 108.53 0.42 107.23 0.23 105.97 0.12 104.73 0.06 103.53 0.02 102.35 0.01 101.21 0 100.08 0 98.95 0 16.71 0 15.58 0 14.43 0.01 13.26 0.02 12.05 0.06 10.82 0.12 9.55 0.23 8.26 0.42 6.96 0.71 5.69 1.13 4.48 1.71 3.39 2.47 2.46 3.42 1.7 4.51 1.12 5.73 0.7 7.01 0.42 8.31 0.23 9.62 0.12 10.89 0.06 12.14 0.02 13.35 0.01 14.53 0 15.69 0 16.82 0 22.44 0 23.57 0 24.71 0.01 25.86 0.02 27.04 0.06 28.25 0.12 29.5 0.23 30.78 0.42 32.08 0.7 33.38 1.12 34.66 1.7 35.88 2.46 36.98 3.39 37.92 4.48 38.68 5.69 39.27 6.96 39.69 8.26 39.97 9.55 40.16 10.82 40.27 12.05 40.34 13.26 40.37 14.43 40.39 15.58 40.39 16.71 40.39 98.95 40.39 100.08 40.39 101.21 40.39 102.35 40.39 103.53 40.37 104.73 40.34 105.97 40.27 107.23 40.16 108.53 39.97 109.82 39.69 111.09 39.27 112.3 38.68 113.39 37.92 114.33 36.98 115.09 35.88 115.67 34.66 116.08 33.38 116.37 32.08 116.55 30.78 116.66 29.5 116.73 28.25 116.76 27.04 116.78 25.86 116.78 24.71 116.78 23.57 116.78 22.44 116.78 16.82"/></g><g class="cls-4"><g class="cls-5"><rect class="cls-6" x="44.42" y="13.6" width="13.99" height="15.04" transform="translate(-0.14 -0.27) rotate(-0.38)"/></g><g class="cls-7"><rect class="cls-8" x="33.59" y="13.35" width="11.86" height="15.64" transform="translate(-0.14 -0.35) rotate(-0.38)"/></g><g class="cls-9"><rect class="cls-10" x="10.48" y="13.59" width="18.24" height="15.08" transform="matrix(1, -0.01, 0.01, 1, -0.14, -0.48)"/></g><g class="cls-11"><rect class="cls-12" x="27.07" y="13.64" width="7.17" height="14.99" transform="translate(-0.14 -0.41) rotate(-0.38)"/></g></g><path d="M78.05,33.36a.83.83,0,0,1,.83-.89.84.84,0,0,1,.84.89.85.85,0,0,1-.84.89.83.83,0,0,1-.83-.89Zm2.24,0V32h-.61v.34a1.06,1.06,0,0,0-.86-.4,1.44,1.44,0,0,0,0,2.88,1,1,0,0,0,.86-.4v.35h.61v-1.4Zm20.2,0a.83.83,0,0,1,.83-.89.84.84,0,0,1,.84.89.85.85,0,0,1-.84.89.84.84,0,0,1-.83-.89Zm2.22,0V30.89h-.61v1.44a1,1,0,0,0-.86-.4,1.44,1.44,0,0,0,0,2.88,1,1,0,0,0,.86-.4v.35h.61v-1.4Zm-15-.91a.66.66,0,0,1,.69.66H87a.73.73,0,0,1,.75-.66Zm0-.52a1.44,1.44,0,0,0,0,2.88,1.76,1.76,0,0,0,1.12-.37L88.58,34a1.37,1.37,0,0,1-.81.28.77.77,0,0,1-.83-.66h2V33.4a1.28,1.28,0,0,0-1.27-1.47Zm7.23,1.43a.83.83,0,0,1,.83-.89.84.84,0,0,1,.84.89.85.85,0,0,1-.84.89.83.83,0,0,1-.83-.89Zm2.21,0V32h-.6v.34a1.08,1.08,0,0,0-.87-.4,1.44,1.44,0,0,0,0,2.88,1,1,0,0,0,.87-.4v.35h.6v-1.4Zm-5.58,0A1.39,1.39,0,0,0,93,34.81a1.45,1.45,0,0,0,1-.32L93.73,34a1.12,1.12,0,0,1-.71.25.82.82,0,0,1-.84-.89.86.86,0,0,1,.84-.89,1.08,1.08,0,0,1,.71.26l.29-.49a1.44,1.44,0,0,0-1-.31,1.37,1.37,0,0,0-1.47,1.42Zm7.71-1.43a.79.79,0,0,0-.71.4V32H98v2.76h.61V33.2c0-.46.2-.72.57-.72a1.67,1.67,0,0,1,.38.06L99.7,32a2.08,2.08,0,0,0-.42,0Zm-16.06.29a1.91,1.91,0,0,0-1.12-.29c-.69,0-1.15.35-1.15.89s.35.72,1,.81l.28,0c.31.05.49.14.49.28s-.23.35-.64.35a1.73,1.73,0,0,1-.92-.28l-.28.46a2,2,0,0,0,1.18.34c.8,0,1.26-.37,1.26-.89s-.37-.74-.94-.83l-.29,0c-.26,0-.46-.08-.46-.26s.2-.31.52-.31a2.12,2.12,0,0,1,.86.23l.26-.5ZM91,31.93a.82.82,0,0,0-.72.4V32h-.6v2.76h.6V33.2c0-.46.21-.72.58-.72a1.67,1.67,0,0,1,.38.06l.17-.58a1.89,1.89,0,0,0-.41,0ZM85.84,32h-1v-.84h-.6V32H83.7v.55h.56V33.8c0,.64.25,1,.94,1a1.55,1.55,0,0,0,.75-.2l-.18-.51a.92.92,0,0,1-.51.15c-.29,0-.41-.18-.41-.46V32.55h1V32Zm-9,2.76V33a1,1,0,0,0-1.09-1.09,1.17,1.17,0,0,0-1,.49,1,1,0,0,0-.92-.49.92.92,0,0,0-.8.4V32h-.6v2.76h.61V33.23c0-.49.25-.72.66-.72s.6.26.6.72v1.52H75V33.23a.63.63,0,0,1,.66-.72c.41,0,.61.26.61.72v1.52Z" transform="translate(0 -0.61)"/><polygon class="cls-13" points="83.03 10.4 92.09 10.4 92.09 26.68 83.03 26.68 83.03 10.4 83.03 10.4"/><path class="cls-14" d="M83.59,19.15A10.42,10.42,0,0,1,87.53,11a10.36,10.36,0,1,0,0,16.29,10.38,10.38,0,0,1-3.94-8.15Z" transform="translate(0 -0.61)"/><path class="cls-15" d="M104.32,19.15A10.36,10.36,0,0,1,87.56,27.3a10.39,10.39,0,0,0,0-16.29,10.35,10.35,0,0,1,16.76,8.14Z" transform="translate(0 -0.61)"/></g></svg>